<svg width="83" height="20" viewBox="0 0 83 20" fill="none" xmlns="http://www.w3.org/2000/svg">
<path d="M5.81956 14.572C3.33556 14.572 1.53556 12.772 1.53556 10.24C1.53556 7.708 3.33556 5.896 5.81956 5.896C8.20756 5.896 10.0676 7.636 10.0676 10.24C10.0676 12.832 8.20756 14.572 5.81956 14.572ZM5.81956 13.588C7.58356 13.588 8.97556 12.208 8.97556 10.24C8.97556 8.26 7.58356 6.88 5.81956 6.88C3.97156 6.88 2.62756 8.308 2.62756 10.24C2.62756 12.16 3.97156 13.588 5.81956 13.588ZM12.6499 5.98L12.2539 8.872H11.2099L11.8579 5.98H12.6499ZM13.4125 14.5V13.792L16.8085 9.532L16.7965 9.496H13.5925V8.656H18.1405V9.352L14.7325 13.648L14.7445 13.66H18.1405V14.5H13.4125ZM22.6009 14.572C21.6409 14.572 20.9209 14.14 20.4889 13.444H20.4649V14.5H19.5409V5.668H20.5129V9.676H20.5249C20.9689 8.98 21.7129 8.584 22.6009 8.584C24.2569 8.584 25.4449 9.892 25.4449 11.62C25.4449 13.396 24.2089 14.572 22.6009 14.572ZM22.4689 13.684C23.6449 13.684 24.4609 12.796 24.4609 11.62C24.4609 10.324 23.5609 9.472 22.4569 9.472C21.2689 9.472 20.4649 10.42 20.4649 11.62C20.4649 12.856 21.3529 13.684 22.4689 13.684ZM32.108 11.476C32.108 11.632 32.084 11.8 32.084 11.872H27.524C27.656 12.964 28.424 13.684 29.528 13.684C30.308 13.684 30.86 13.348 31.22 12.904L31.904 13.48C31.4 14.128 30.668 14.572 29.492 14.572C27.764 14.572 26.54 13.372 26.54 11.584C26.54 9.82 27.752 8.584 29.42 8.584C31.016 8.584 32.108 9.808 32.108 11.476ZM29.408 9.472C28.472 9.472 27.728 10.084 27.548 11.08H31.136C30.992 10.12 30.368 9.472 29.408 9.472ZM33.5331 14.5V5.668H34.5051V11.848L34.5171 11.86L37.3851 8.656H38.5611L36.3771 11.068L38.5851 14.5H37.4691L35.7051 11.752L34.5051 13.048V14.5H33.5331ZM41.9833 14.572C40.2793 14.572 39.0673 13.36 39.0673 11.584C39.0673 9.82 40.2793 8.584 42.0193 8.584C42.8953 8.584 43.7953 8.944 44.3713 9.628L43.7113 10.216C43.3393 9.784 42.7633 9.472 42.0673 9.472C40.8673 9.472 40.0633 10.348 40.0633 11.584C40.0633 12.832 40.8673 13.684 42.0553 13.684C42.7513 13.684 43.3633 13.384 43.7233 12.94L44.3953 13.552C43.9033 14.14 43.1233 14.572 41.9833 14.572ZM45.6972 14.5V5.668H46.6692V9.676H46.6812C47.1372 8.98 47.9052 8.584 48.8412 8.584C50.1012 8.584 50.9652 9.328 50.9652 10.996V14.5H49.9932V11.272C49.9932 9.952 49.4052 9.472 48.5532 9.472C47.3892 9.472 46.6692 10.24 46.6692 11.56V14.5H45.6972ZM55.1298 14.572C53.5218 14.572 52.2858 13.396 52.2858 11.62C52.2858 9.892 53.4738 8.584 55.1298 8.584C55.9938 8.584 56.7498 8.992 57.1698 9.7L57.1938 9.688V8.656H58.1658V14.5H57.2298V13.444H57.2178C56.7978 14.14 56.0778 14.572 55.1298 14.572ZM55.2738 13.684C56.3538 13.684 57.2298 12.856 57.2298 11.62C57.2298 10.42 56.4258 9.472 55.2738 9.472C54.1698 9.472 53.2698 10.324 53.2698 11.62C53.2698 12.796 54.0738 13.684 55.2738 13.684Z" fill="#5A696E"/>
<circle cx="73" cy="10" r="7.5" stroke="#B0B7BA" stroke-width="1.5" stroke-linecap="round" stroke-linejoin="round"/>
<path d="M66 7.50001H80" stroke="#B0B7BA" stroke-width="1.5" stroke-linecap="round" stroke-linejoin="round"/>
<path d="M66 12.5H80" stroke="#B0B7BA" stroke-width="1.5" stroke-linecap="round" stroke-linejoin="round"/>
<path d="M72.5832 2.5C69.719 7.08981 69.719 12.9102 72.5832 17.5" stroke="#B0B7BA" stroke-width="1.5" stroke-linecap="round" stroke-linejoin="round"/>
<path d="M73.4167 2.5C76.281 7.08981 76.281 12.9102 73.4167 17.5" stroke="#B0B7BA" stroke-width="1.5" stroke-linecap="round" stroke-linejoin="round"/>
</svg>
